<svg id="Calque_1" data-name="Calque 1" xmlns="http://www.w3.org/2000/svg" viewBox="0 0 1940 582.408">
  <rect x="1117.63" y="195.276" width="17.858" height="17.858" style="fill: #51a750"/>
  <g>
    <path d="M1144.952,193.552h8.9a8.745,8.745,0,0,1,3.625.653,4.636,4.636,0,0,1,2.709,4.626,4.814,4.814,0,0,1-2.759,4.678,4.008,4.008,0,0,1,1.726,1.227,4.4,4.4,0,0,1,.647,2.466l.094,2.626a8.016,8.016,0,0,0,.186,1.666,1.639,1.639,0,0,0,.853,1.2v.44h-3.252a2.433,2.433,0,0,1-.214-.654,12.474,12.474,0,0,1-.133-1.545l-.16-3.267a2.76,2.76,0,0,0-1.386-2.572,5.583,5.583,0,0,0-2.318-.36H1147.6v8.4h-2.652Zm8.616,8.971a4.894,4.894,0,0,0,2.871-.747,3.075,3.075,0,0,0,1.057-2.692,2.909,2.909,0,0,0-1.478-2.853,4.727,4.727,0,0,0-2.113-.4h-6.3v6.691Z" style="fill: #1b1b19"/>
    <path d="M1172.573,199.25a5.411,5.411,0,0,1,2.159,1.847,6.4,6.4,0,0,1,.955,2.519,16.717,16.717,0,0,1,.211,3.146h-10.383a6.164,6.164,0,0,0,1.018,3.5,3.4,3.4,0,0,0,2.949,1.316,3.789,3.789,0,0,0,2.976-1.245,4.252,4.252,0,0,0,.881-1.674h2.359a4.947,4.947,0,0,1-.62,1.753,6.267,6.267,0,0,1-1.174,1.579,5.54,5.54,0,0,1-2.685,1.44,8.12,8.12,0,0,1-1.946.213,5.956,5.956,0,0,1-4.49-1.939,7.574,7.574,0,0,1-1.842-5.432,8.238,8.238,0,0,1,1.855-5.585,6.1,6.1,0,0,1,4.85-2.147A6.444,6.444,0,0,1,1172.573,199.25Zm.86,5.606a6.281,6.281,0,0,0-.675-2.493,3.448,3.448,0,0,0-3.265-1.733,3.6,3.6,0,0,0-2.749,1.193,4.53,4.53,0,0,0-1.177,3.033Z" style="fill: #1b1b19"/>
    <path d="M1188.1,199.617a5.622,5.622,0,0,1,1.819,4.039h-2.332a4.31,4.31,0,0,0-.974-2.193,3.072,3.072,0,0,0-2.439-.873,3.372,3.372,0,0,0-3.279,2.237,8.882,8.882,0,0,0-.64,3.581,6.741,6.741,0,0,0,.906,3.609,3.52,3.52,0,0,0,5.219.554,5,5,0,0,0,1.207-2.489h2.332a5.641,5.641,0,0,1-6.092,5.465,5.462,5.462,0,0,1-4.465-2.046,7.831,7.831,0,0,1-1.667-5.112,8.615,8.615,0,0,1,1.827-5.852,5.9,5.9,0,0,1,4.652-2.093A6.227,6.227,0,0,1,1188.1,199.617Z" style="fill: #1b1b19"/>
    <path d="M1200.993,198.857h2.653q-.505,1.374-2.252,6.268-1.308,3.681-2.187,6a40.458,40.458,0,0,1-2.93,6.661,3.348,3.348,0,0,1-2.929,1.2,5.863,5.863,0,0,1-.78-.04,6.3,6.3,0,0,1-.672-.147v-2.186a7.89,7.89,0,0,0,.9.213,3.466,3.466,0,0,0,.492.04,1.721,1.721,0,0,0,.978-.22,2.024,2.024,0,0,0,.526-.538q.066-.106.478-1.091t.6-1.463l-5.279-14.7h2.719l3.827,11.629Z" style="fill: #1b1b19"/>
    <path d="M1214.877,199.617a5.618,5.618,0,0,1,1.819,4.039h-2.332a4.309,4.309,0,0,0-.973-2.193,3.076,3.076,0,0,0-2.44-.873,3.372,3.372,0,0,0-3.279,2.237,8.882,8.882,0,0,0-.64,3.581,6.741,6.741,0,0,0,.906,3.609,3.52,3.52,0,0,0,5.219.554,4.991,4.991,0,0,0,1.207-2.489h2.332a5.641,5.641,0,0,1-6.092,5.465,5.459,5.459,0,0,1-4.464-2.046,7.825,7.825,0,0,1-1.667-5.112,8.615,8.615,0,0,1,1.826-5.852,5.9,5.9,0,0,1,4.652-2.093A6.225,6.225,0,0,1,1214.877,199.617Z" style="fill: #1b1b19"/>
    <path d="M1218.89,193.552h2.4v19.582h-2.4Z" style="fill: #1b1b19"/>
    <path d="M1232.267,204.494a1.3,1.3,0,0,0,1.106-.692,2.135,2.135,0,0,0,.16-.924,1.96,1.96,0,0,0-.872-1.786,4.654,4.654,0,0,0-2.494-.555,3.155,3.155,0,0,0-2.66,1.018,3.353,3.353,0,0,0-.572,1.674h-2.24a4.137,4.137,0,0,1,1.711-3.682,7,7,0,0,1,3.815-1.036,7.754,7.754,0,0,1,4.087.96,3.253,3.253,0,0,1,1.557,2.986v8.225a1.051,1.051,0,0,0,.154.6.739.739,0,0,0,.646.226,3.448,3.448,0,0,0,.36-.02c.133-.013.276-.032.427-.059V213.2a6.52,6.52,0,0,1-.853.2,6.178,6.178,0,0,1-.8.04,1.976,1.976,0,0,1-1.8-.879,3.4,3.4,0,0,1-.413-1.32,6.077,6.077,0,0,1-2.106,1.666,6.517,6.517,0,0,1-3.026.707,4.5,4.5,0,0,1-3.246-1.205,4,4,0,0,1-1.26-3.016,3.88,3.88,0,0,1,1.24-3.075,5.906,5.906,0,0,1,3.252-1.345Zm-5.052,6.482a2.817,2.817,0,0,0,1.8.6,5.485,5.485,0,0,0,2.453-.585,3.3,3.3,0,0,0,2-3.181v-1.93a4.08,4.08,0,0,1-1.131.468,9.489,9.489,0,0,1-1.356.267l-1.451.186a5.632,5.632,0,0,0-1.961.546,2.121,2.121,0,0,0-1.112,2A1.97,1.97,0,0,0,1227.215,210.976Z" style="fill: #1b1b19"/>
    <path d="M1247.462,199.431a6.585,6.585,0,0,1,1.381,1.359v-1.8h2.213v12.983a9.612,9.612,0,0,1-.8,4.293q-1.488,2.906-5.62,2.905a6.877,6.877,0,0,1-3.867-1.033,4.033,4.033,0,0,1-1.753-3.232h2.439a2.725,2.725,0,0,0,.689,1.479,3.506,3.506,0,0,0,2.546.8q2.743,0,3.592-1.946a11.019,11.019,0,0,0,.465-4.093,4.709,4.709,0,0,1-1.727,1.627,6.171,6.171,0,0,1-6.711-1.113q-1.734-1.647-1.733-5.446a8.268,8.268,0,0,1,1.746-5.6,5.392,5.392,0,0,1,4.216-2.013A5.161,5.161,0,0,1,1247.462,199.431Zm.294,2.572a3.48,3.48,0,0,0-2.773-1.279,3.424,3.424,0,0,0-3.448,2.372,9.354,9.354,0,0,0-.49,3.32,5.913,5.913,0,0,0,.975,3.672,3.139,3.139,0,0,0,2.619,1.26,3.678,3.678,0,0,0,3.621-2.333,7.578,7.578,0,0,0,.583-3.079A5.98,5.98,0,0,0,1247.756,202Z" style="fill: #1b1b19"/>
    <path d="M1263.254,199.25a5.418,5.418,0,0,1,2.159,1.847,6.385,6.385,0,0,1,.954,2.519,16.611,16.611,0,0,1,.212,3.146H1256.2a6.164,6.164,0,0,0,1.019,3.5,3.4,3.4,0,0,0,2.949,1.316,3.792,3.792,0,0,0,2.976-1.245,4.252,4.252,0,0,0,.881-1.674h2.359a4.987,4.987,0,0,1-.62,1.753,6.291,6.291,0,0,1-1.174,1.579,5.543,5.543,0,0,1-2.686,1.44,8.112,8.112,0,0,1-1.945.213,5.955,5.955,0,0,1-4.49-1.939,7.57,7.57,0,0,1-1.842-5.432,8.233,8.233,0,0,1,1.855-5.585,6.1,6.1,0,0,1,4.849-2.147A6.445,6.445,0,0,1,1263.254,199.25Zm.859,5.606a6.248,6.248,0,0,0-.675-2.493,3.447,3.447,0,0,0-3.264-1.733,3.6,3.6,0,0,0-2.749,1.193,4.53,4.53,0,0,0-1.177,3.033Z" style="fill: #1b1b19"/>
  </g>
  <rect x="1117.63" y="228.876" width="17.858" height="17.858" style="fill: #740e45"/>
  <g>
    <path d="M1146.365,240.417a5.5,5.5,0,0,0,.758,2.706q1.271,1.945,4.481,1.946a7.684,7.684,0,0,0,2.62-.426,3,3,0,0,0,2.286-2.96,2.587,2.587,0,0,0-.969-2.279,9.581,9.581,0,0,0-3.073-1.16l-2.571-.6a11.418,11.418,0,0,1-3.564-1.293,4.135,4.135,0,0,1-1.808-3.665,5.722,5.722,0,0,1,1.778-4.333,7.01,7.01,0,0,1,5.033-1.693,8.583,8.583,0,0,1,5.092,1.486,5.426,5.426,0,0,1,2.094,4.753h-2.493a5.047,5.047,0,0,0-.817-2.413,4.651,4.651,0,0,0-3.949-1.533,4.445,4.445,0,0,0-3.234.986,3.149,3.149,0,0,0-.984,2.293,2.253,2.253,0,0,0,1.162,2.106,16.678,16.678,0,0,0,3.449,1.067l2.66.626a8.009,8.009,0,0,1,2.971,1.24,4.7,4.7,0,0,1,1.809,3.986,5.012,5.012,0,0,1-2.308,4.652,10.138,10.138,0,0,1-5.362,1.4,7.886,7.886,0,0,1-5.577-1.867,6.371,6.371,0,0,1-1.977-5.025Z" style="fill: #1b1b19"/>
    <path d="M1162.756,228.473h2.427v3.986h2.279v1.959h-2.279v9.318a1.009,1.009,0,0,0,.505,1,2.174,2.174,0,0,0,.934.146c.115,0,.239,0,.373-.008s.289-.021.467-.045v1.906a5.435,5.435,0,0,1-.86.174,8.312,8.312,0,0,1-.966.053,2.609,2.609,0,0,1-2.281-.86,3.826,3.826,0,0,1-.6-2.233v-9.451h-1.933v-1.959h1.933Z" style="fill: #1b1b19"/>
    <path d="M1179.959,233.884a7.2,7.2,0,0,1,1.893,5.407,9.323,9.323,0,0,1-1.667,5.7,6.019,6.019,0,0,1-5.176,2.251,5.831,5.831,0,0,1-4.647-1.991,7.9,7.9,0,0,1-1.72-5.348,8.54,8.54,0,0,1,1.813-5.726,6.07,6.07,0,0,1,4.871-2.132A6.4,6.4,0,0,1,1179.959,233.884Zm-1.489,9.488a9.071,9.071,0,0,0,.876-4.015,7.2,7.2,0,0,0-.633-3.248,3.55,3.55,0,0,0-3.453-1.97,3.4,3.4,0,0,0-3.163,1.677,7.841,7.841,0,0,0-.989,4.047,6.818,6.818,0,0,0,.989,3.795,3.469,3.469,0,0,0,3.136,1.518A3.268,3.268,0,0,0,1178.47,243.372Z" style="fill: #1b1b19"/>
    <path d="M1193.956,233.219a5.616,5.616,0,0,1,1.819,4.039h-2.332a4.3,4.3,0,0,0-.973-2.193,3.076,3.076,0,0,0-2.44-.873,3.372,3.372,0,0,0-3.279,2.237,8.882,8.882,0,0,0-.64,3.581,6.726,6.726,0,0,0,.907,3.608,3.518,3.518,0,0,0,5.218.555,5,5,0,0,0,1.207-2.49h2.332a5.641,5.641,0,0,1-6.091,5.465,5.459,5.459,0,0,1-4.465-2.045,7.83,7.83,0,0,1-1.667-5.113,8.612,8.612,0,0,1,1.826-5.851,5.9,5.9,0,0,1,4.652-2.094A6.226,6.226,0,0,1,1193.956,233.219Z" style="fill: #1b1b19"/>
    <path d="M1197.849,227.153h2.306v11.37l6.153-6.064h3.065l-5.487,5.308,5.8,8.968h-3.066l-4.49-7.264-1.97,1.905v5.359h-2.306Z" style="fill: #1b1b19"/>
    <path d="M1218.931,238.1a1.3,1.3,0,0,0,1.106-.692,2.115,2.115,0,0,0,.16-.923,1.96,1.96,0,0,0-.872-1.786,4.654,4.654,0,0,0-2.494-.555,3.155,3.155,0,0,0-2.66,1.018,3.363,3.363,0,0,0-.572,1.674h-2.24a4.139,4.139,0,0,1,1.711-3.683,7.01,7.01,0,0,1,3.815-1.036,7.751,7.751,0,0,1,4.087.96,3.256,3.256,0,0,1,1.557,2.986v8.225a1.055,1.055,0,0,0,.154.6.739.739,0,0,0,.646.226,3.434,3.434,0,0,0,.36-.02c.133-.013.276-.033.427-.06V246.8a6.691,6.691,0,0,1-.853.2,6.178,6.178,0,0,1-.8.04,1.976,1.976,0,0,1-1.8-.879,3.4,3.4,0,0,1-.413-1.32,6.093,6.093,0,0,1-2.105,1.666,6.533,6.533,0,0,1-3.027.706,4.5,4.5,0,0,1-3.246-1.205,4,4,0,0,1-1.26-3.015,3.878,3.878,0,0,1,1.241-3.076,5.9,5.9,0,0,1,3.251-1.344Zm-5.052,6.482a2.812,2.812,0,0,0,1.8.6,5.486,5.486,0,0,0,2.453-.586,3.3,3.3,0,0,0,2-3.181v-1.93a4.049,4.049,0,0,1-1.131.469,9.489,9.489,0,0,1-1.356.267l-1.451.186a5.61,5.61,0,0,0-1.961.546,2.118,2.118,0,0,0-1.112,1.994A1.968,1.968,0,0,0,1213.879,244.577Z" style="fill: #1b1b19"/>
    <path d="M1234.125,233.032a6.567,6.567,0,0,1,1.381,1.36v-1.8h2.213v12.984a9.608,9.608,0,0,1-.8,4.292q-1.488,2.906-5.62,2.906a6.882,6.882,0,0,1-3.866-1.033,4.033,4.033,0,0,1-1.754-3.233h2.439a2.722,2.722,0,0,0,.69,1.48,3.5,3.5,0,0,0,2.545.8q2.745,0,3.592-1.947a11.017,11.017,0,0,0,.465-4.092,4.7,4.7,0,0,1-1.726,1.626,6.167,6.167,0,0,1-6.712-1.113q-1.734-1.646-1.733-5.445a8.272,8.272,0,0,1,1.746-5.6,5.391,5.391,0,0,1,4.216-2.012A5.168,5.168,0,0,1,1234.125,233.032Zm.294,2.572a3.479,3.479,0,0,0-2.773-1.279,3.424,3.424,0,0,0-3.448,2.373,9.348,9.348,0,0,0-.49,3.319,5.911,5.911,0,0,0,.975,3.672,3.139,3.139,0,0,0,2.619,1.26,3.678,3.678,0,0,0,3.621-2.333,7.558,7.558,0,0,0,.583-3.079A5.978,5.978,0,0,0,1234.419,235.6Z" style="fill: #1b1b19"/>
    <path d="M1249.917,232.852a5.424,5.424,0,0,1,2.159,1.846,6.4,6.4,0,0,1,.954,2.52,16.6,16.6,0,0,1,.212,3.146h-10.384a6.16,6.16,0,0,0,1.019,3.5,3.394,3.394,0,0,0,2.949,1.317,3.788,3.788,0,0,0,2.976-1.246,4.245,4.245,0,0,0,.881-1.674h2.359a4.98,4.98,0,0,1-.62,1.753,6.3,6.3,0,0,1-1.174,1.58,5.543,5.543,0,0,1-2.686,1.44,8.112,8.112,0,0,1-1.945.213,5.956,5.956,0,0,1-4.49-1.94,7.568,7.568,0,0,1-1.842-5.432,8.236,8.236,0,0,1,1.855-5.585,6.1,6.1,0,0,1,4.849-2.146A6.445,6.445,0,0,1,1249.917,232.852Zm.859,5.606a6.261,6.261,0,0,0-.674-2.493,3.449,3.449,0,0,0-3.265-1.733,3.6,3.6,0,0,0-2.749,1.193,4.528,4.528,0,0,0-1.177,3.033Z" style="fill: #1b1b19"/>
  </g>
  <rect x="1117.63" y="262.476" width="17.858" height="17.858" style="fill: #b0c633"/>
  <g>
    <path d="M1145.21,260.751h2.679v19.582h-2.679Z" style="fill: #1b1b19"/>
    <path d="M1151.629,266.057h2.279v2.026a6.388,6.388,0,0,1,2.147-1.8,5.722,5.722,0,0,1,2.518-.547q3.04,0,4.107,2.12a7.539,7.539,0,0,1,.586,3.319v9.158h-2.44v-9a4.866,4.866,0,0,0-.387-2.106,2.341,2.341,0,0,0-2.319-1.333,4.738,4.738,0,0,0-1.4.173,3.607,3.607,0,0,0-1.733,1.173,3.533,3.533,0,0,0-.78,1.46,9.825,9.825,0,0,0-.18,2.153v7.478h-2.4Z" style="fill: #1b1b19"/>
    <path d="M1175.97,266.816a5.62,5.62,0,0,1,1.819,4.039h-2.332a4.31,4.31,0,0,0-.974-2.192,3.072,3.072,0,0,0-2.439-.873,3.371,3.371,0,0,0-3.279,2.236,8.888,8.888,0,0,0-.64,3.581,6.738,6.738,0,0,0,.906,3.609,3.521,3.521,0,0,0,5.219.555,5.007,5.007,0,0,0,1.207-2.49h2.332a5.641,5.641,0,0,1-6.092,5.465,5.462,5.462,0,0,1-4.465-2.046,7.831,7.831,0,0,1-1.667-5.112,8.615,8.615,0,0,1,1.827-5.852,5.9,5.9,0,0,1,4.652-2.093A6.227,6.227,0,0,1,1175.97,266.816Z" style="fill: #1b1b19"/>
    <path d="M1179.916,260.751h2.439v2.72h-2.439Zm0,5.372h2.439v14.21h-2.439Z" style="fill: #1b1b19"/>
    <path d="M1185.708,266.057h2.279v2.026a6.388,6.388,0,0,1,2.147-1.8,5.725,5.725,0,0,1,2.518-.547q3.041,0,4.107,2.12a7.539,7.539,0,0,1,.586,3.319v9.158h-2.44v-9a4.882,4.882,0,0,0-.386-2.106,2.343,2.343,0,0,0-2.32-1.333,4.738,4.738,0,0,0-1.4.173,3.612,3.612,0,0,0-1.733,1.173,3.533,3.533,0,0,0-.78,1.46,9.825,9.825,0,0,0-.18,2.153v7.478h-2.4Z" style="fill: #1b1b19"/>
    <path d="M1209.437,266.45a5.416,5.416,0,0,1,2.159,1.846,6.406,6.406,0,0,1,.954,2.519,16.7,16.7,0,0,1,.212,3.146h-10.384a6.169,6.169,0,0,0,1.018,3.5,3.4,3.4,0,0,0,2.95,1.316,3.788,3.788,0,0,0,2.975-1.245,4.252,4.252,0,0,0,.881-1.674h2.36a4.971,4.971,0,0,1-.621,1.753,6.314,6.314,0,0,1-1.173,1.58,5.555,5.555,0,0,1-2.686,1.439,8.067,8.067,0,0,1-1.945.213,5.957,5.957,0,0,1-4.491-1.939,7.574,7.574,0,0,1-1.841-5.432,8.237,8.237,0,0,1,1.854-5.585,6.105,6.105,0,0,1,4.85-2.147A6.45,6.45,0,0,1,1209.437,266.45Zm.859,5.605a6.27,6.27,0,0,0-.675-2.493,3.447,3.447,0,0,0-3.265-1.732,3.607,3.607,0,0,0-2.749,1.192,4.531,4.531,0,0,0-1.176,3.033Zm-.96-11.744-3.56,3.853h-1.838l2.439-3.853Z" style="fill: #1b1b19"/>
    <path d="M1215.6,266.057h2.279v2.465a5.454,5.454,0,0,1,1.373-1.752,3.56,3.56,0,0,1,2.52-1.034c.044,0,.12,0,.226.014s.289.026.547.053v2.533a3.53,3.53,0,0,0-.394-.053c-.12-.009-.25-.013-.393-.013a3.42,3.42,0,0,0-2.785,1.166,4.063,4.063,0,0,0-.974,2.686v8.211h-2.4Z" style="fill: #1b1b19"/>
    <path d="M1232,271.693A1.3,1.3,0,0,0,1233.1,271a2.117,2.117,0,0,0,.161-.923,1.959,1.959,0,0,0-.872-1.786,4.648,4.648,0,0,0-2.5-.556,3.159,3.159,0,0,0-2.66,1.018,3.367,3.367,0,0,0-.572,1.675h-2.239a4.137,4.137,0,0,1,1.711-3.683,7,7,0,0,1,3.814-1.036,7.751,7.751,0,0,1,4.087.96,3.256,3.256,0,0,1,1.558,2.986v8.225a1.049,1.049,0,0,0,.153.6.74.74,0,0,0,.646.227c.108,0,.227-.007.361-.02s.275-.033.427-.06V280.4a6.739,6.739,0,0,1-.854.2,6.353,6.353,0,0,1-.8.04,1.977,1.977,0,0,1-1.8-.88,3.4,3.4,0,0,1-.413-1.32,6.07,6.07,0,0,1-2.105,1.666,6.52,6.52,0,0,1-3.026.707,4.506,4.506,0,0,1-3.247-1.2,4,4,0,0,1-1.259-3.016,3.88,3.88,0,0,1,1.24-3.075,5.907,5.907,0,0,1,3.252-1.345Zm-5.052,6.482a2.819,2.819,0,0,0,1.8.6,5.482,5.482,0,0,0,2.453-.585,3.3,3.3,0,0,0,2-3.181v-1.93a4.05,4.05,0,0,1-1.131.468,9.489,9.489,0,0,1-1.356.267l-1.45.187a5.606,5.606,0,0,0-1.961.545,2.121,2.121,0,0,0-1.112,2A1.969,1.969,0,0,0,1226.946,278.175Z" style="fill: #1b1b19"/>
    <path d="M1239.735,262.071h2.427v3.986h2.279v1.959h-2.279v9.318a1,1,0,0,0,.506,1,2.149,2.149,0,0,0,.934.147c.115,0,.239,0,.373-.009s.289-.02.466-.044v1.906a5.3,5.3,0,0,1-.86.173,8.076,8.076,0,0,1-.966.054,2.606,2.606,0,0,1-2.28-.86,3.831,3.831,0,0,1-.6-2.233v-9.451H1237.8v-1.959h1.932Z" style="fill: #1b1b19"/>
    <path d="M1246.6,260.751h2.439v2.72H1246.6Zm0,5.372h2.439v14.21H1246.6Z" style="fill: #1b1b19"/>
    <path d="M1262.731,267.481a7.2,7.2,0,0,1,1.893,5.407,9.326,9.326,0,0,1-1.667,5.7,6.02,6.02,0,0,1-5.176,2.25,5.827,5.827,0,0,1-4.646-1.99,7.9,7.9,0,0,1-1.721-5.348,8.545,8.545,0,0,1,1.814-5.727,6.072,6.072,0,0,1,4.871-2.131A6.4,6.4,0,0,1,1262.731,267.481Zm-1.489,9.488a9.063,9.063,0,0,0,.876-4.014,7.2,7.2,0,0,0-.633-3.248,3.551,3.551,0,0,0-3.453-1.971,3.4,3.4,0,0,0-3.163,1.678,7.835,7.835,0,0,0-.988,4.047,6.818,6.818,0,0,0,.988,3.795,3.468,3.468,0,0,0,3.137,1.517A3.266,3.266,0,0,0,1261.242,276.969Z" style="fill: #1b1b19"/>
    <path d="M1267.3,266.057h2.279v2.026a6.388,6.388,0,0,1,2.147-1.8,5.722,5.722,0,0,1,2.518-.547q3.041,0,4.107,2.12a7.539,7.539,0,0,1,.586,3.319v9.158h-2.44v-9a4.866,4.866,0,0,0-.387-2.106,2.341,2.341,0,0,0-2.319-1.333,4.738,4.738,0,0,0-1.4.173,3.607,3.607,0,0,0-1.733,1.173,3.533,3.533,0,0,0-.78,1.46,9.825,9.825,0,0,0-.18,2.153v7.478h-2.4Z" style="fill: #1b1b19"/>
    <path d="M1297.2,271.693a1.3,1.3,0,0,0,1.107-.692,2.133,2.133,0,0,0,.16-.923,1.959,1.959,0,0,0-.872-1.786,4.644,4.644,0,0,0-2.494-.556,3.162,3.162,0,0,0-2.661,1.018,3.377,3.377,0,0,0-.572,1.675h-2.239a4.137,4.137,0,0,1,1.711-3.683,7,7,0,0,1,3.814-1.036,7.751,7.751,0,0,1,4.087.96,3.256,3.256,0,0,1,1.558,2.986v8.225a1.057,1.057,0,0,0,.153.6.743.743,0,0,0,.647.227c.107,0,.226-.007.36-.02s.275-.033.427-.06V280.4a6.7,6.7,0,0,1-.854.2,6.353,6.353,0,0,1-.8.04,1.975,1.975,0,0,1-1.8-.88,3.388,3.388,0,0,1-.413-1.32,6.084,6.084,0,0,1-2.106,1.666,6.52,6.52,0,0,1-3.026.707,4.5,4.5,0,0,1-3.246-1.2,4,4,0,0,1-1.26-3.016,3.88,3.88,0,0,1,1.24-3.075,5.907,5.907,0,0,1,3.252-1.345Zm-5.052,6.482a2.819,2.819,0,0,0,1.8.6,5.482,5.482,0,0,0,2.453-.585,3.3,3.3,0,0,0,2-3.181v-1.93a4.042,4.042,0,0,1-1.13.468,9.475,9.475,0,0,1-1.357.267l-1.45.187a5.613,5.613,0,0,0-1.961.545,2.121,2.121,0,0,0-1.112,2A1.972,1.972,0,0,0,1292.146,278.175Z" style="fill: #1b1b19"/>
    <path d="M1305.636,266.057l3.812,11.623,3.972-11.623h2.626l-5.374,14.276h-2.557l-5.265-14.276Z" style="fill: #1b1b19"/>
    <path d="M1326.652,266.45a5.419,5.419,0,0,1,2.16,1.846,6.421,6.421,0,0,1,.954,2.519,16.7,16.7,0,0,1,.212,3.146h-10.384a6.169,6.169,0,0,0,1.018,3.5,3.4,3.4,0,0,0,2.95,1.316,3.788,3.788,0,0,0,2.975-1.245,4.252,4.252,0,0,0,.881-1.674h2.359a4.947,4.947,0,0,1-.62,1.753,6.291,6.291,0,0,1-1.174,1.58,5.547,5.547,0,0,1-2.685,1.439,8.067,8.067,0,0,1-1.945.213,5.957,5.957,0,0,1-4.491-1.939,7.574,7.574,0,0,1-1.841-5.432,8.237,8.237,0,0,1,1.854-5.585,6.1,6.1,0,0,1,4.85-2.147A6.446,6.446,0,0,1,1326.652,266.45Zm.86,5.605a6.286,6.286,0,0,0-.675-2.493,3.447,3.447,0,0,0-3.265-1.732,3.6,3.6,0,0,0-2.749,1.192,4.532,4.532,0,0,0-1.177,3.033Z" style="fill: #1b1b19"/>
    <path d="M1342.174,266.816a5.62,5.62,0,0,1,1.819,4.039h-2.332a4.309,4.309,0,0,0-.973-2.192,3.076,3.076,0,0,0-2.44-.873,3.371,3.371,0,0,0-3.279,2.236,8.888,8.888,0,0,0-.64,3.581,6.738,6.738,0,0,0,.906,3.609,3.521,3.521,0,0,0,5.219.555,5.007,5.007,0,0,0,1.207-2.49h2.332a5.641,5.641,0,0,1-6.092,5.465,5.459,5.459,0,0,1-4.464-2.046,7.825,7.825,0,0,1-1.667-5.112,8.615,8.615,0,0,1,1.826-5.852,5.9,5.9,0,0,1,4.652-2.093A6.227,6.227,0,0,1,1342.174,266.816Z" style="fill: #1b1b19"/>
  </g>
  <g>
    <path d="M1144.356,299.662h2.28v2.466a5.437,5.437,0,0,1,1.373-1.753,3.561,3.561,0,0,1,2.519-1.033c.044,0,.12,0,.227.013s.289.027.547.054v2.532a3.817,3.817,0,0,0-.394-.053c-.12-.009-.251-.013-.393-.013a3.427,3.427,0,0,0-2.786,1.166,4.071,4.071,0,0,0-.973,2.686v8.211h-2.4Z" style="fill: #1b1b19"/>
    <path d="M1161.927,300.055a5.424,5.424,0,0,1,2.159,1.846,6.41,6.41,0,0,1,.954,2.52,16.611,16.611,0,0,1,.212,3.146h-10.384a6.158,6.158,0,0,0,1.019,3.5,3.393,3.393,0,0,0,2.949,1.317,3.789,3.789,0,0,0,2.976-1.246,4.231,4.231,0,0,0,.88-1.674h2.36a4.98,4.98,0,0,1-.62,1.753,6.322,6.322,0,0,1-1.174,1.58,5.543,5.543,0,0,1-2.686,1.44,8.112,8.112,0,0,1-1.945.213,5.954,5.954,0,0,1-4.49-1.94,7.568,7.568,0,0,1-1.842-5.432,8.241,8.241,0,0,1,1.854-5.585,6.108,6.108,0,0,1,4.85-2.146A6.449,6.449,0,0,1,1161.927,300.055Zm.859,5.606a6.265,6.265,0,0,0-.675-2.493,3.447,3.447,0,0,0-3.264-1.733,3.6,3.6,0,0,0-2.749,1.193,4.523,4.523,0,0,0-1.177,3.033Zm-.96-11.744-3.559,3.852h-1.839l2.439-3.852Z" style="fill: #1b1b19"/>
    <path d="M1177.449,300.422a5.62,5.62,0,0,1,1.82,4.039h-2.332a4.31,4.31,0,0,0-.974-2.193,3.074,3.074,0,0,0-2.44-.873,3.372,3.372,0,0,0-3.279,2.237,8.882,8.882,0,0,0-.64,3.581,6.726,6.726,0,0,0,.907,3.608,3.518,3.518,0,0,0,5.218.555,4.992,4.992,0,0,0,1.208-2.49h2.332a5.641,5.641,0,0,1-6.092,5.466,5.461,5.461,0,0,1-4.465-2.046,7.835,7.835,0,0,1-1.667-5.113,8.614,8.614,0,0,1,1.826-5.851,5.9,5.9,0,0,1,4.652-2.093A6.225,6.225,0,0,1,1177.449,300.422Z" style="fill: #1b1b19"/>
    <path d="M1183.822,299.662v9.478a4.086,4.086,0,0,0,.338,1.786,2.343,2.343,0,0,0,2.323,1.28,3.286,3.286,0,0,0,3.324-2.24,9.1,9.1,0,0,0,.48-3.292v-7.012h2.4v14.276h-2.266l.026-2.1a4.816,4.816,0,0,1-1.138,1.372,4.948,4.948,0,0,1-3.27,1.12q-3,0-4.081-2.039a6.167,6.167,0,0,1-.589-2.92v-9.7Z" style="fill: #1b1b19"/>
    <path d="M1196.132,299.729h2.346v1.893a5.827,5.827,0,0,1,1.577-1.507,5.088,5.088,0,0,1,2.86-.8,5.384,5.384,0,0,1,4.13,1.86,7.61,7.61,0,0,1,1.7,5.312q0,4.666-2.449,6.665a5.547,5.547,0,0,1-3.613,1.266,4.92,4.92,0,0,1-2.717-.706,6.269,6.269,0,0,1-1.432-1.373v7.291h-2.4Zm9.027,11.19a6.678,6.678,0,0,0,1.117-4.206,7.825,7.825,0,0,0-.5-2.932,3.63,3.63,0,0,0-6.848.133,9.851,9.851,0,0,0-.495,3.386,7.156,7.156,0,0,0,.495,2.813,3.642,3.642,0,0,0,6.226.806Z" style="fill: #1b1b19"/>
    <path d="M1220.061,300.055a5.424,5.424,0,0,1,2.159,1.846,6.41,6.41,0,0,1,.954,2.52,16.7,16.7,0,0,1,.212,3.146H1213a6.158,6.158,0,0,0,1.019,3.5,3.393,3.393,0,0,0,2.949,1.317,3.786,3.786,0,0,0,2.975-1.246,4.245,4.245,0,0,0,.881-1.674h2.36a4.964,4.964,0,0,1-.621,1.753,6.3,6.3,0,0,1-1.173,1.58,5.548,5.548,0,0,1-2.686,1.44,8.117,8.117,0,0,1-1.945.213,5.954,5.954,0,0,1-4.49-1.94,7.568,7.568,0,0,1-1.842-5.432,8.241,8.241,0,0,1,1.854-5.585,6.108,6.108,0,0,1,4.85-2.146A6.449,6.449,0,0,1,1220.061,300.055Zm.859,5.606a6.265,6.265,0,0,0-.675-2.493,3.447,3.447,0,0,0-3.265-1.733,3.608,3.608,0,0,0-2.749,1.193,4.527,4.527,0,0,0-1.176,3.033Zm-.96-11.744-3.56,3.852h-1.838l2.439-3.852Z" style="fill: #1b1b19"/>
    <path d="M1226.219,299.662h2.279v2.466a5.466,5.466,0,0,1,1.373-1.753,3.563,3.563,0,0,1,2.52-1.033c.044,0,.12,0,.226.013s.289.027.547.054v2.532a3.8,3.8,0,0,0-.393-.053c-.121-.009-.251-.013-.394-.013a3.423,3.423,0,0,0-2.785,1.166,4.066,4.066,0,0,0-.974,2.686v8.211h-2.4Z" style="fill: #1b1b19"/>
    <path d="M1242.622,305.3a1.3,1.3,0,0,0,1.107-.692,2.127,2.127,0,0,0,.16-.923,1.96,1.96,0,0,0-.872-1.786,4.658,4.658,0,0,0-2.5-.555,3.157,3.157,0,0,0-2.66,1.018,3.363,3.363,0,0,0-.572,1.674h-2.239a4.135,4.135,0,0,1,1.711-3.682,7,7,0,0,1,3.814-1.037,7.751,7.751,0,0,1,4.087.96,3.256,3.256,0,0,1,1.558,2.986v8.225a1.055,1.055,0,0,0,.153.6.741.741,0,0,0,.647.226,3.463,3.463,0,0,0,.36-.02c.133-.013.275-.033.427-.06v1.773a6.7,6.7,0,0,1-.854.2,6.167,6.167,0,0,1-.8.04,1.977,1.977,0,0,1-1.8-.879,3.4,3.4,0,0,1-.413-1.32,6.093,6.093,0,0,1-2.105,1.666,6.519,6.519,0,0,1-3.026.706,4.5,4.5,0,0,1-3.247-1.2,4,4,0,0,1-1.259-3.015,3.879,3.879,0,0,1,1.24-3.075,5.893,5.893,0,0,1,3.252-1.345Zm-5.052,6.482a2.814,2.814,0,0,0,1.8.6,5.47,5.47,0,0,0,2.453-.586,3.294,3.294,0,0,0,2-3.181v-1.929a4.08,4.08,0,0,1-1.131.468,9.489,9.489,0,0,1-1.356.267l-1.45.186a5.6,5.6,0,0,0-1.961.546,2.119,2.119,0,0,0-1.112,2A1.967,1.967,0,0,0,1237.57,311.78Z" style="fill: #1b1b19"/>
    <path d="M1250.359,295.676h2.427v3.986h2.279v1.96h-2.279v9.317a1.008,1.008,0,0,0,.506,1,2.155,2.155,0,0,0,.934.146c.115,0,.239,0,.373-.008s.289-.021.466-.045v1.906a5.3,5.3,0,0,1-.86.174,8.3,8.3,0,0,1-.966.053,2.606,2.606,0,0,1-2.28-.86,3.826,3.826,0,0,1-.6-2.233v-9.45h-1.932v-1.96h1.932Z" style="fill: #1b1b19"/>
    <path d="M1257.22,294.356h2.439v2.72h-2.439Zm0,5.373h2.439v14.209h-2.439Z" style="fill: #1b1b19"/>
    <path d="M1273.355,301.087a7.2,7.2,0,0,1,1.893,5.407,9.323,9.323,0,0,1-1.667,5.7,6.018,6.018,0,0,1-5.176,2.251,5.827,5.827,0,0,1-4.646-1.991,7.9,7.9,0,0,1-1.721-5.348,8.54,8.54,0,0,1,1.814-5.726,6.069,6.069,0,0,1,4.871-2.131A6.392,6.392,0,0,1,1273.355,301.087Zm-1.489,9.488a9.07,9.07,0,0,0,.876-4.014,7.2,7.2,0,0,0-.633-3.249,3.552,3.552,0,0,0-3.453-1.97,3.4,3.4,0,0,0-3.163,1.677,7.84,7.84,0,0,0-.988,4.047,6.818,6.818,0,0,0,.988,3.8,3.469,3.469,0,0,0,3.137,1.518A3.268,3.268,0,0,0,1271.866,310.575Z" style="fill: #1b1b19"/>
    <path d="M1277.922,299.662h2.279v2.026a6.384,6.384,0,0,1,2.147-1.8,5.708,5.708,0,0,1,2.518-.547q3.041,0,4.107,2.119a7.547,7.547,0,0,1,.586,3.32v9.157h-2.44v-9a4.872,4.872,0,0,0-.387-2.106,2.342,2.342,0,0,0-2.319-1.333,4.735,4.735,0,0,0-1.4.174,3.6,3.6,0,0,0-1.733,1.173,3.533,3.533,0,0,0-.78,1.46,9.815,9.815,0,0,0-.18,2.152v7.478h-2.4Z" style="fill: #1b1b19"/>
    <path d="M1308.015,300.1a6.47,6.47,0,0,1,1.447,1.4V294.29h2.306v19.648h-2.16v-1.986a5.166,5.166,0,0,1-1.978,1.906,5.637,5.637,0,0,1-2.616.587,5.292,5.292,0,0,1-4.117-2.006,7.861,7.861,0,0,1-1.74-5.339,9.247,9.247,0,0,1,1.587-5.405,5.189,5.189,0,0,1,4.535-2.286A5.05,5.05,0,0,1,1308.015,300.1Zm-5.357,10.7a3.389,3.389,0,0,0,3.1,1.546,3.262,3.262,0,0,0,2.725-1.433,6.79,6.79,0,0,0,1.068-4.112,6.1,6.1,0,0,0-1.1-4.006,3.427,3.427,0,0,0-2.719-1.3,3.583,3.583,0,0,0-2.924,1.387,6.367,6.367,0,0,0-1.121,4.079A7.108,7.108,0,0,0,1302.658,310.806Z" style="fill: #1b1b19"/>
    <path d="M1315.587,300.048a1.491,1.491,0,0,0,1.113-.826,3.372,3.372,0,0,0,.38-1.626c0-.062,0-.118-.007-.167a.851.851,0,0,0-.033-.166h-1.453v-2.907h2.853v2.68a5.6,5.6,0,0,1-.707,2.9,2.738,2.738,0,0,1-2.146,1.367Z" style="fill: #1b1b19"/>
    <path d="M1329.691,300.055a5.427,5.427,0,0,1,2.16,1.846,6.41,6.41,0,0,1,.954,2.52,16.7,16.7,0,0,1,.212,3.146h-10.384a6.165,6.165,0,0,0,1.018,3.5,3.4,3.4,0,0,0,2.95,1.317,3.786,3.786,0,0,0,2.975-1.246,4.245,4.245,0,0,0,.881-1.674h2.359a4.94,4.94,0,0,1-.62,1.753,6.273,6.273,0,0,1-1.174,1.58,5.54,5.54,0,0,1-2.685,1.44,8.117,8.117,0,0,1-1.945.213,5.958,5.958,0,0,1-4.491-1.94,7.572,7.572,0,0,1-1.841-5.432,8.241,8.241,0,0,1,1.854-5.585,6.106,6.106,0,0,1,4.85-2.146A6.441,6.441,0,0,1,1329.691,300.055Zm.86,5.606a6.265,6.265,0,0,0-.675-2.493,3.447,3.447,0,0,0-3.265-1.733,3.608,3.608,0,0,0-2.749,1.193,4.522,4.522,0,0,0-1.176,3.033Zm-.96-11.744-3.56,3.852h-1.839l2.44-3.852Z" style="fill: #1b1b19"/>
    <path d="M1335.782,299.662h2.28v2.026a6.372,6.372,0,0,1,2.146-1.8,5.712,5.712,0,0,1,2.519-.547q3.039,0,4.106,2.119a7.533,7.533,0,0,1,.586,3.32v9.157h-2.44v-9a4.873,4.873,0,0,0-.386-2.106,2.344,2.344,0,0,0-2.32-1.333,4.735,4.735,0,0,0-1.4.174,3.6,3.6,0,0,0-1.732,1.173,3.524,3.524,0,0,0-.781,1.46,9.826,9.826,0,0,0-.179,2.152v7.478h-2.4Z" style="fill: #1b1b19"/>
    <path d="M1359.511,300.055a5.424,5.424,0,0,1,2.159,1.846,6.41,6.41,0,0,1,.954,2.52,16.611,16.611,0,0,1,.212,3.146h-10.384a6.158,6.158,0,0,0,1.019,3.5,3.393,3.393,0,0,0,2.949,1.317,3.789,3.789,0,0,0,2.976-1.246,4.231,4.231,0,0,0,.88-1.674h2.36a4.98,4.98,0,0,1-.62,1.753,6.322,6.322,0,0,1-1.174,1.58,5.543,5.543,0,0,1-2.686,1.44,8.112,8.112,0,0,1-1.945.213,5.954,5.954,0,0,1-4.49-1.94,7.568,7.568,0,0,1-1.842-5.432,8.241,8.241,0,0,1,1.854-5.585,6.108,6.108,0,0,1,4.85-2.146A6.449,6.449,0,0,1,1359.511,300.055Zm.859,5.606a6.265,6.265,0,0,0-.675-2.493,3.447,3.447,0,0,0-3.264-1.733,3.6,3.6,0,0,0-2.749,1.193,4.523,4.523,0,0,0-1.177,3.033Z" style="fill: #1b1b19"/>
    <path d="M1365.669,299.662h2.279v2.466a5.466,5.466,0,0,1,1.373-1.753,3.565,3.565,0,0,1,2.52-1.033c.044,0,.12,0,.226.013s.289.027.547.054v2.532a3.764,3.764,0,0,0-.393-.053c-.12-.009-.251-.013-.394-.013a3.423,3.423,0,0,0-2.785,1.166,4.072,4.072,0,0,0-.974,2.686v8.211h-2.4Z" style="fill: #1b1b19"/>
    <path d="M1382.357,300.235a6.545,6.545,0,0,1,1.381,1.36v-1.8h2.213v12.984a9.594,9.594,0,0,1-.8,4.292q-1.488,2.905-5.62,2.906a6.884,6.884,0,0,1-3.866-1.033,4.033,4.033,0,0,1-1.754-3.233h2.44a2.721,2.721,0,0,0,.689,1.48,3.5,3.5,0,0,0,2.546.8q2.744,0,3.592-1.947a11.013,11.013,0,0,0,.465-4.092,4.709,4.709,0,0,1-1.727,1.627,6.17,6.17,0,0,1-6.712-1.114q-1.733-1.645-1.732-5.445a8.272,8.272,0,0,1,1.746-5.6,5.392,5.392,0,0,1,4.216-2.012A5.164,5.164,0,0,1,1382.357,300.235Zm.294,2.573a3.478,3.478,0,0,0-2.772-1.28,3.423,3.423,0,0,0-3.448,2.373,9.35,9.35,0,0,0-.491,3.319,5.921,5.921,0,0,0,.975,3.673,3.141,3.141,0,0,0,2.619,1.259,3.677,3.677,0,0,0,3.621-2.333,7.558,7.558,0,0,0,.583-3.079A5.973,5.973,0,0,0,1382.651,302.808Z" style="fill: #1b1b19"/>
    <path d="M1389.331,294.356h2.44v2.72h-2.44Zm0,5.373h2.44v14.209h-2.44Z" style="fill: #1b1b19"/>
    <path d="M1403.941,300.055a5.427,5.427,0,0,1,2.16,1.846,6.41,6.41,0,0,1,.954,2.52,16.7,16.7,0,0,1,.212,3.146h-10.384a6.165,6.165,0,0,0,1.018,3.5,3.4,3.4,0,0,0,2.95,1.317,3.786,3.786,0,0,0,2.975-1.246,4.245,4.245,0,0,0,.881-1.674h2.359a4.94,4.94,0,0,1-.62,1.753,6.273,6.273,0,0,1-1.174,1.58,5.54,5.54,0,0,1-2.685,1.44,8.117,8.117,0,0,1-1.945.213,5.958,5.958,0,0,1-4.491-1.94,7.572,7.572,0,0,1-1.841-5.432,8.241,8.241,0,0,1,1.854-5.585,6.106,6.106,0,0,1,4.85-2.146A6.441,6.441,0,0,1,1403.941,300.055Zm.86,5.606a6.265,6.265,0,0,0-.675-2.493,3.447,3.447,0,0,0-3.265-1.733,3.608,3.608,0,0,0-2.749,1.193,4.522,4.522,0,0,0-1.176,3.033Z" style="fill: #1b1b19"/>
  </g>
  <rect x="1117.63" y="329.676" width="17.858" height="17.858" style="fill: #d37e31"/>
  <g>
    <path d="M1145.21,327.954h2.679v19.582h-2.679Z" style="fill: #1b1b19"/>
    <path d="M1151.629,333.26h2.279v2.026a6.4,6.4,0,0,1,2.147-1.8,5.722,5.722,0,0,1,2.518-.547q3.04,0,4.107,2.12a7.542,7.542,0,0,1,.586,3.319v9.158h-2.44v-9a4.866,4.866,0,0,0-.387-2.106,2.341,2.341,0,0,0-2.319-1.333,4.738,4.738,0,0,0-1.4.173,3.607,3.607,0,0,0-1.733,1.173,3.539,3.539,0,0,0-.78,1.46,9.825,9.825,0,0,0-.18,2.153v7.478h-2.4Z" style="fill: #1b1b19"/>
    <path d="M1175.97,334.02a5.616,5.616,0,0,1,1.819,4.039h-2.332a4.31,4.31,0,0,0-.974-2.193,3.072,3.072,0,0,0-2.439-.873,3.371,3.371,0,0,0-3.279,2.236,8.89,8.89,0,0,0-.64,3.582,6.737,6.737,0,0,0,.906,3.608,3.521,3.521,0,0,0,5.219.555,5,5,0,0,0,1.207-2.49h2.332a5.641,5.641,0,0,1-6.092,5.465,5.46,5.46,0,0,1-4.465-2.046,7.831,7.831,0,0,1-1.667-5.112,8.615,8.615,0,0,1,1.827-5.852,5.9,5.9,0,0,1,4.652-2.093A6.222,6.222,0,0,1,1175.97,334.02Z" style="fill: #1b1b19"/>
    <path d="M1179.916,327.954h2.439v2.72h-2.439Zm0,5.372h2.439v14.21h-2.439Z" style="fill: #1b1b19"/>
    <path d="M1185.708,333.26h2.279v2.026a6.4,6.4,0,0,1,2.147-1.8,5.725,5.725,0,0,1,2.518-.547q3.041,0,4.107,2.12a7.542,7.542,0,0,1,.586,3.319v9.158h-2.44v-9a4.882,4.882,0,0,0-.386-2.106,2.343,2.343,0,0,0-2.32-1.333,4.738,4.738,0,0,0-1.4.173,3.612,3.612,0,0,0-1.733,1.173,3.539,3.539,0,0,0-.78,1.46,9.825,9.825,0,0,0-.18,2.153v7.478h-2.4Z" style="fill: #1b1b19"/>
    <path d="M1209.437,333.653a5.416,5.416,0,0,1,2.159,1.846,6.41,6.41,0,0,1,.954,2.52,16.689,16.689,0,0,1,.212,3.146h-10.384a6.168,6.168,0,0,0,1.018,3.5,3.4,3.4,0,0,0,2.95,1.317,3.786,3.786,0,0,0,2.975-1.246,4.252,4.252,0,0,0,.881-1.674h2.36a4.964,4.964,0,0,1-.621,1.753,6.3,6.3,0,0,1-1.173,1.58,5.548,5.548,0,0,1-2.686,1.44,8.12,8.12,0,0,1-1.945.212,5.957,5.957,0,0,1-4.491-1.939,7.572,7.572,0,0,1-1.841-5.432,8.239,8.239,0,0,1,1.854-5.585,6.105,6.105,0,0,1,4.85-2.147A6.45,6.45,0,0,1,1209.437,333.653Zm.859,5.6a6.26,6.26,0,0,0-.675-2.492,3.446,3.446,0,0,0-3.265-1.733,3.6,3.6,0,0,0-2.749,1.193,4.527,4.527,0,0,0-1.176,3.032Zm-.96-11.744-3.56,3.853h-1.838l2.439-3.853Z" style="fill: #1b1b19"/>
    <path d="M1215.6,333.26h2.279v2.466a5.466,5.466,0,0,1,1.373-1.753,3.56,3.56,0,0,1,2.52-1.034c.044,0,.12,0,.226.014s.289.026.547.053v2.533a3.53,3.53,0,0,0-.394-.053c-.12-.009-.25-.013-.393-.013a3.42,3.42,0,0,0-2.785,1.166,4.066,4.066,0,0,0-.974,2.686v8.211h-2.4Z" style="fill: #1b1b19"/>
    <path d="M1232,338.9a1.3,1.3,0,0,0,1.106-.692,2.114,2.114,0,0,0,.161-.923,1.959,1.959,0,0,0-.872-1.786,4.657,4.657,0,0,0-2.5-.556,3.157,3.157,0,0,0-2.66,1.019,3.363,3.363,0,0,0-.572,1.674h-2.239a4.137,4.137,0,0,1,1.711-3.683,7,7,0,0,1,3.814-1.036,7.751,7.751,0,0,1,4.087.96,3.256,3.256,0,0,1,1.558,2.986v8.225a1.055,1.055,0,0,0,.153.6.743.743,0,0,0,.646.226c.108,0,.227-.007.361-.02s.275-.033.427-.06V347.6a6.877,6.877,0,0,1-.854.2,6.167,6.167,0,0,1-.8.04,1.977,1.977,0,0,1-1.8-.88,3.4,3.4,0,0,1-.413-1.319,6.093,6.093,0,0,1-2.105,1.666,6.532,6.532,0,0,1-3.026.706,4.506,4.506,0,0,1-3.247-1.205,4,4,0,0,1-1.259-3.016,3.88,3.88,0,0,1,1.24-3.075,5.907,5.907,0,0,1,3.252-1.345Zm-5.052,6.482a2.819,2.819,0,0,0,1.8.6,5.483,5.483,0,0,0,2.453-.586,3.3,3.3,0,0,0,2-3.181v-1.93a4.049,4.049,0,0,1-1.131.469,9.629,9.629,0,0,1-1.356.267l-1.45.186a5.582,5.582,0,0,0-1.961.546,2.118,2.118,0,0,0-1.112,1.994A1.968,1.968,0,0,0,1226.946,345.378Z" style="fill: #1b1b19"/>
    <path d="M1239.735,329.274h2.427v3.986h2.279v1.959h-2.279v9.318a1.008,1.008,0,0,0,.506,1,2.168,2.168,0,0,0,.934.146c.115,0,.239,0,.373-.009s.289-.02.466-.044v1.906a5.3,5.3,0,0,1-.86.173,8.076,8.076,0,0,1-.966.054,2.606,2.606,0,0,1-2.28-.86,3.829,3.829,0,0,1-.6-2.233v-9.451H1237.8V333.26h1.932Z" style="fill: #1b1b19"/>
    <path d="M1246.6,327.954h2.439v2.72H1246.6Zm0,5.372h2.439v14.21H1246.6Z" style="fill: #1b1b19"/>
    <path d="M1262.731,334.685a7.2,7.2,0,0,1,1.893,5.406,9.324,9.324,0,0,1-1.667,5.7,6.02,6.02,0,0,1-5.176,2.25,5.827,5.827,0,0,1-4.646-1.99,7.9,7.9,0,0,1-1.721-5.348,8.54,8.54,0,0,1,1.814-5.726,6.07,6.07,0,0,1,4.871-2.132A6.392,6.392,0,0,1,1262.731,334.685Zm-1.489,9.487a9.063,9.063,0,0,0,.876-4.014,7.2,7.2,0,0,0-.633-3.248,3.551,3.551,0,0,0-3.453-1.971,3.4,3.4,0,0,0-3.163,1.678,7.835,7.835,0,0,0-.988,4.047,6.818,6.818,0,0,0,.988,3.8,3.469,3.469,0,0,0,3.137,1.518A3.267,3.267,0,0,0,1261.242,344.172Z" style="fill: #1b1b19"/>
    <path d="M1267.3,333.26h2.279v2.026a6.4,6.4,0,0,1,2.147-1.8,5.722,5.722,0,0,1,2.518-.547q3.041,0,4.107,2.12a7.542,7.542,0,0,1,.586,3.319v9.158h-2.44v-9a4.866,4.866,0,0,0-.387-2.106,2.341,2.341,0,0,0-2.319-1.333,4.738,4.738,0,0,0-1.4.173,3.607,3.607,0,0,0-1.733,1.173,3.539,3.539,0,0,0-.78,1.46,9.825,9.825,0,0,0-.18,2.153v7.478h-2.4Z" style="fill: #1b1b19"/>
    <path d="M1290.973,343.057a3.445,3.445,0,0,0,.612,1.84,3.891,3.891,0,0,0,3.211,1.16,4.816,4.816,0,0,0,2.394-.58,1.918,1.918,0,0,0,1.035-1.793,1.529,1.529,0,0,0-.827-1.4,9.963,9.963,0,0,0-2.086-.68l-1.937-.479a9.572,9.572,0,0,1-2.736-1.014,3.019,3.019,0,0,1-1.573-2.693,4.09,4.09,0,0,1,1.48-3.278,5.949,5.949,0,0,1,3.978-1.254q3.27,0,4.715,1.893a4.069,4.069,0,0,1,.878,2.586h-2.265a2.724,2.724,0,0,0-.587-1.471,3.812,3.812,0,0,0-2.934-.941,3.571,3.571,0,0,0-2.108.518,1.609,1.609,0,0,0-.717,1.367,1.68,1.68,0,0,0,.941,1.488,5.725,5.725,0,0,0,1.6.586l1.616.386a12.645,12.645,0,0,1,3.531,1.213,3.213,3.213,0,0,1,1.4,2.893,4.383,4.383,0,0,1-1.465,3.292,6.281,6.281,0,0,1-4.46,1.387q-3.226,0-4.569-1.447a5.429,5.429,0,0,1-1.437-3.579Z" style="fill: #1b1b19"/>
    <path d="M1310.575,338.9a1.3,1.3,0,0,0,1.107-.692,2.13,2.13,0,0,0,.16-.923,1.959,1.959,0,0,0-.872-1.786,4.653,4.653,0,0,0-2.494-.556,3.159,3.159,0,0,0-2.661,1.019,3.363,3.363,0,0,0-.572,1.674H1303a4.137,4.137,0,0,1,1.711-3.683,7,7,0,0,1,3.814-1.036,7.751,7.751,0,0,1,4.087.96,3.256,3.256,0,0,1,1.558,2.986v8.225a1.063,1.063,0,0,0,.153.6.745.745,0,0,0,.647.226c.107,0,.226-.007.36-.02s.275-.033.427-.06V347.6a6.836,6.836,0,0,1-.854.2,6.167,6.167,0,0,1-.8.04,1.975,1.975,0,0,1-1.8-.88,3.388,3.388,0,0,1-.413-1.319,6.107,6.107,0,0,1-2.106,1.666,6.532,6.532,0,0,1-3.026.706,4.5,4.5,0,0,1-3.246-1.205,4,4,0,0,1-1.26-3.016,3.88,3.88,0,0,1,1.24-3.075,5.907,5.907,0,0,1,3.252-1.345Zm-5.052,6.482a2.819,2.819,0,0,0,1.8.6,5.483,5.483,0,0,0,2.453-.586,3.3,3.3,0,0,0,2-3.181v-1.93a4.054,4.054,0,0,1-1.13.469,9.642,9.642,0,0,1-1.357.267l-1.45.186a5.582,5.582,0,0,0-1.961.546,2.118,2.118,0,0,0-1.112,1.994A1.97,1.97,0,0,0,1305.523,345.378Z" style="fill: #1b1b19"/>
    <path d="M1317.834,333.26h2.279v2.026a6.4,6.4,0,0,1,2.147-1.8,5.722,5.722,0,0,1,2.518-.547q3.041,0,4.107,2.12a7.542,7.542,0,0,1,.586,3.319v9.158h-2.44v-9a4.882,4.882,0,0,0-.386-2.106,2.343,2.343,0,0,0-2.32-1.333,4.738,4.738,0,0,0-1.4.173,3.612,3.612,0,0,0-1.733,1.173,3.539,3.539,0,0,0-.78,1.46,9.825,9.825,0,0,0-.18,2.153v7.478h-2.4Z" style="fill: #1b1b19"/>
    <path d="M1334.169,343.057a3.445,3.445,0,0,0,.612,1.84,3.892,3.892,0,0,0,3.211,1.16,4.823,4.823,0,0,0,2.395-.58,1.919,1.919,0,0,0,1.034-1.793,1.528,1.528,0,0,0-.826-1.4,10,10,0,0,0-2.087-.68l-1.937-.479a9.572,9.572,0,0,1-2.736-1.014,3.018,3.018,0,0,1-1.572-2.693,4.089,4.089,0,0,1,1.479-3.278,5.954,5.954,0,0,1,3.979-1.254q3.269,0,4.715,1.893a4.074,4.074,0,0,1,.877,2.586h-2.265a2.717,2.717,0,0,0-.587-1.471,3.812,3.812,0,0,0-2.934-.941,3.573,3.573,0,0,0-2.108.518,1.609,1.609,0,0,0-.717,1.367,1.681,1.681,0,0,0,.942,1.488,5.7,5.7,0,0,0,1.6.586l1.616.386a12.668,12.668,0,0,1,3.532,1.213,3.214,3.214,0,0,1,1.4,2.893,4.38,4.38,0,0,1-1.465,3.292,6.279,6.279,0,0,1-4.46,1.387q-3.225,0-4.568-1.447a5.429,5.429,0,0,1-1.438-3.579Z" style="fill: #1b1b19"/>
  </g>
  <g>
    <path d="M1144.356,366.861h2.28v2.466a5.437,5.437,0,0,1,1.373-1.753,3.561,3.561,0,0,1,2.519-1.033c.044,0,.12,0,.227.014s.289.026.547.053v2.533a3.578,3.578,0,0,0-.394-.054c-.12-.008-.251-.013-.393-.013a3.427,3.427,0,0,0-2.786,1.166,4.071,4.071,0,0,0-.973,2.686v8.212h-2.4Z" style="fill: #1b1b19"/>
    <path d="M1161.927,367.254a5.418,5.418,0,0,1,2.159,1.847,6.4,6.4,0,0,1,.954,2.519,16.611,16.611,0,0,1,.212,3.146h-10.384a6.164,6.164,0,0,0,1.019,3.5,3.394,3.394,0,0,0,2.949,1.316,3.792,3.792,0,0,0,2.976-1.245,4.237,4.237,0,0,0,.88-1.674h2.36a4.987,4.987,0,0,1-.62,1.753,6.315,6.315,0,0,1-1.174,1.579,5.543,5.543,0,0,1-2.686,1.44,8.112,8.112,0,0,1-1.945.213,5.953,5.953,0,0,1-4.49-1.939,7.571,7.571,0,0,1-1.842-5.433,8.236,8.236,0,0,1,1.854-5.584,6.105,6.105,0,0,1,4.85-2.147A6.449,6.449,0,0,1,1161.927,367.254Zm.859,5.606a6.265,6.265,0,0,0-.675-2.493,3.447,3.447,0,0,0-3.264-1.733,3.6,3.6,0,0,0-2.749,1.193,4.525,4.525,0,0,0-1.177,3.033Zm-.96-11.744-3.559,3.852h-1.839l2.439-3.852Z" style="fill: #1b1b19"/>
    <path d="M1177.449,367.621a5.622,5.622,0,0,1,1.82,4.039h-2.332a4.31,4.31,0,0,0-.974-2.193,3.074,3.074,0,0,0-2.44-.873,3.372,3.372,0,0,0-3.279,2.237,8.882,8.882,0,0,0-.64,3.581,6.732,6.732,0,0,0,.907,3.609,3.519,3.519,0,0,0,5.218.554,4.992,4.992,0,0,0,1.208-2.49h2.332a5.641,5.641,0,0,1-6.092,5.466,5.461,5.461,0,0,1-4.465-2.046,7.831,7.831,0,0,1-1.667-5.112,8.615,8.615,0,0,1,1.826-5.852,5.9,5.9,0,0,1,4.652-2.093A6.225,6.225,0,0,1,1177.449,367.621Z" style="fill: #1b1b19"/>
    <path d="M1183.822,366.861v9.478a4.086,4.086,0,0,0,.338,1.786,2.343,2.343,0,0,0,2.323,1.28,3.287,3.287,0,0,0,3.324-2.239,9.112,9.112,0,0,0,.48-3.293v-7.012h2.4v14.277h-2.266l.026-2.106a4.816,4.816,0,0,1-1.138,1.372,4.948,4.948,0,0,1-3.27,1.12q-3,0-4.081-2.039a6.167,6.167,0,0,1-.589-2.92v-9.7Z" style="fill: #1b1b19"/>
    <path d="M1196.132,366.928h2.346v1.893a5.827,5.827,0,0,1,1.577-1.507,5.087,5.087,0,0,1,2.86-.8,5.383,5.383,0,0,1,4.13,1.859,7.61,7.61,0,0,1,1.7,5.312q0,4.667-2.449,6.665a5.548,5.548,0,0,1-3.613,1.267,4.921,4.921,0,0,1-2.717-.707,6.247,6.247,0,0,1-1.432-1.373v7.292h-2.4Zm9.027,11.191a6.682,6.682,0,0,0,1.117-4.206,7.827,7.827,0,0,0-.5-2.933,3.631,3.631,0,0,0-6.848.133,9.853,9.853,0,0,0-.495,3.387,7.15,7.15,0,0,0,.495,2.812,3.642,3.642,0,0,0,6.226.807Z" style="fill: #1b1b19"/>
    <path d="M1220.061,367.254a5.418,5.418,0,0,1,2.159,1.847,6.4,6.4,0,0,1,.954,2.519,16.7,16.7,0,0,1,.212,3.146H1213a6.164,6.164,0,0,0,1.019,3.5,3.394,3.394,0,0,0,2.949,1.316,3.788,3.788,0,0,0,2.975-1.245,4.252,4.252,0,0,0,.881-1.674h2.36a4.971,4.971,0,0,1-.621,1.753,6.289,6.289,0,0,1-1.173,1.579,5.548,5.548,0,0,1-2.686,1.44,8.117,8.117,0,0,1-1.945.213,5.953,5.953,0,0,1-4.49-1.939,7.571,7.571,0,0,1-1.842-5.433,8.236,8.236,0,0,1,1.854-5.584,6.105,6.105,0,0,1,4.85-2.147A6.449,6.449,0,0,1,1220.061,367.254Zm.859,5.606a6.265,6.265,0,0,0-.675-2.493,3.447,3.447,0,0,0-3.265-1.733,3.608,3.608,0,0,0-2.749,1.193,4.529,4.529,0,0,0-1.176,3.033Zm-.96-11.744-3.56,3.852h-1.838l2.439-3.852Z" style="fill: #1b1b19"/>
    <path d="M1226.219,366.861h2.279v2.466a5.466,5.466,0,0,1,1.373-1.753,3.563,3.563,0,0,1,2.52-1.033c.044,0,.12,0,.226.014s.289.026.547.053v2.533a3.563,3.563,0,0,0-.393-.054c-.121-.008-.251-.013-.394-.013a3.423,3.423,0,0,0-2.785,1.166,4.066,4.066,0,0,0-.974,2.686v8.212h-2.4Z" style="fill: #1b1b19"/>
    <path d="M1242.622,372.5a1.306,1.306,0,0,0,1.107-.692,2.135,2.135,0,0,0,.16-.924,1.96,1.96,0,0,0-.872-1.786,4.658,4.658,0,0,0-2.5-.555,3.157,3.157,0,0,0-2.66,1.018,3.363,3.363,0,0,0-.572,1.674h-2.239a4.135,4.135,0,0,1,1.711-3.682,7,7,0,0,1,3.814-1.036,7.742,7.742,0,0,1,4.087.96,3.254,3.254,0,0,1,1.558,2.985v8.226a1.051,1.051,0,0,0,.153.6.741.741,0,0,0,.647.226,3.463,3.463,0,0,0,.36-.02c.133-.013.275-.033.427-.059V381.2a6.7,6.7,0,0,1-.854.2,6.167,6.167,0,0,1-.8.04,1.977,1.977,0,0,1-1.8-.879,3.4,3.4,0,0,1-.413-1.32,6.093,6.093,0,0,1-2.105,1.666,6.52,6.52,0,0,1-3.026.707,4.506,4.506,0,0,1-3.247-1.2,4,4,0,0,1-1.259-3.016,3.88,3.88,0,0,1,1.24-3.075,5.9,5.9,0,0,1,3.252-1.345Zm-5.052,6.481a2.814,2.814,0,0,0,1.8.6,5.482,5.482,0,0,0,2.453-.585,3.3,3.3,0,0,0,2-3.181v-1.93a4.08,4.08,0,0,1-1.131.468,9.489,9.489,0,0,1-1.356.267l-1.45.186a5.625,5.625,0,0,0-1.961.546,2.121,2.121,0,0,0-1.112,2A1.966,1.966,0,0,0,1237.57,378.979Z" style="fill: #1b1b19"/>
    <path d="M1250.359,362.875h2.427v3.986h2.279v1.96h-2.279v9.318a1.007,1.007,0,0,0,.506,1,2.152,2.152,0,0,0,.934.147c.115,0,.239,0,.373-.009s.289-.021.466-.045v1.907a5.411,5.411,0,0,1-.86.173,8.3,8.3,0,0,1-.966.053,2.6,2.6,0,0,1-2.28-.86,3.826,3.826,0,0,1-.6-2.233v-9.45h-1.932v-1.96h1.932Z" style="fill: #1b1b19"/>
    <path d="M1257.22,361.556h2.439v2.719h-2.439Zm0,5.372h2.439v14.21h-2.439Z" style="fill: #1b1b19"/>
    <path d="M1273.355,368.286a7.2,7.2,0,0,1,1.893,5.407,9.326,9.326,0,0,1-1.667,5.7,6.02,6.02,0,0,1-5.176,2.25,5.827,5.827,0,0,1-4.646-1.991,7.9,7.9,0,0,1-1.721-5.347,8.545,8.545,0,0,1,1.814-5.727,6.069,6.069,0,0,1,4.871-2.131A6.4,6.4,0,0,1,1273.355,368.286Zm-1.489,9.488a9.07,9.07,0,0,0,.876-4.014,7.211,7.211,0,0,0-.633-3.249,3.552,3.552,0,0,0-3.453-1.97,3.4,3.4,0,0,0-3.163,1.677,7.842,7.842,0,0,0-.988,4.048,6.82,6.82,0,0,0,.988,3.795,3.471,3.471,0,0,0,3.137,1.517A3.266,3.266,0,0,0,1271.866,377.774Z" style="fill: #1b1b19"/>
    <path d="M1277.922,366.861h2.279v2.026a6.384,6.384,0,0,1,2.147-1.8,5.722,5.722,0,0,1,2.518-.547q3.041,0,4.107,2.12a7.539,7.539,0,0,1,.586,3.319v9.158h-2.44v-9a4.866,4.866,0,0,0-.387-2.106,2.341,2.341,0,0,0-2.319-1.333,4.738,4.738,0,0,0-1.4.173,3.6,3.6,0,0,0-1.733,1.173,3.533,3.533,0,0,0-.78,1.46,9.825,9.825,0,0,0-.18,2.153v7.478h-2.4Z" style="fill: #1b1b19"/>
    <path d="M1308.015,367.3a6.455,6.455,0,0,1,1.447,1.4v-7.212h2.306v19.649h-2.16v-1.987a5.177,5.177,0,0,1-1.978,1.907,5.649,5.649,0,0,1-2.616.586,5.289,5.289,0,0,1-4.117-2.006,7.861,7.861,0,0,1-1.74-5.339,9.247,9.247,0,0,1,1.587-5.4,5.189,5.189,0,0,1,4.535-2.286A5.05,5.05,0,0,1,1308.015,367.3Zm-5.357,10.7a3.389,3.389,0,0,0,3.1,1.546,3.263,3.263,0,0,0,2.725-1.432,6.8,6.8,0,0,0,1.068-4.113,6.1,6.1,0,0,0-1.1-4.006,3.426,3.426,0,0,0-2.719-1.3,3.582,3.582,0,0,0-2.924,1.386,6.367,6.367,0,0,0-1.121,4.079A7.108,7.108,0,0,0,1302.658,378.005Z" style="fill: #1b1b19"/>
    <path d="M1315.587,367.248a1.492,1.492,0,0,0,1.113-.827,3.372,3.372,0,0,0,.38-1.626c0-.062,0-.118-.007-.167a.865.865,0,0,0-.033-.166h-1.453v-2.906h2.853v2.679a5.593,5.593,0,0,1-.707,2.9,2.735,2.735,0,0,1-2.146,1.367Z" style="fill: #1b1b19"/>
    <path d="M1329.691,367.254a5.421,5.421,0,0,1,2.16,1.847,6.4,6.4,0,0,1,.954,2.519,16.7,16.7,0,0,1,.212,3.146h-10.384a6.171,6.171,0,0,0,1.018,3.5,3.4,3.4,0,0,0,2.95,1.316,3.788,3.788,0,0,0,2.975-1.245,4.252,4.252,0,0,0,.881-1.674h2.359a4.947,4.947,0,0,1-.62,1.753,6.267,6.267,0,0,1-1.174,1.579,5.54,5.54,0,0,1-2.685,1.44,8.117,8.117,0,0,1-1.945.213,5.957,5.957,0,0,1-4.491-1.939,7.575,7.575,0,0,1-1.841-5.433,8.236,8.236,0,0,1,1.854-5.584,6.1,6.1,0,0,1,4.85-2.147A6.441,6.441,0,0,1,1329.691,367.254Zm.86,5.606a6.265,6.265,0,0,0-.675-2.493,3.447,3.447,0,0,0-3.265-1.733,3.608,3.608,0,0,0-2.749,1.193,4.524,4.524,0,0,0-1.176,3.033Zm-.96-11.744-3.56,3.852h-1.839l2.44-3.852Z" style="fill: #1b1b19"/>
    <path d="M1335.782,366.861h2.28v2.026a6.372,6.372,0,0,1,2.146-1.8,5.726,5.726,0,0,1,2.519-.547q3.039,0,4.106,2.12a7.525,7.525,0,0,1,.586,3.319v9.158h-2.44v-9a4.867,4.867,0,0,0-.386-2.106,2.342,2.342,0,0,0-2.32-1.333,4.738,4.738,0,0,0-1.4.173,3.6,3.6,0,0,0-1.732,1.173,3.524,3.524,0,0,0-.781,1.46,9.836,9.836,0,0,0-.179,2.153v7.478h-2.4Z" style="fill: #1b1b19"/>
    <path d="M1359.511,367.254a5.418,5.418,0,0,1,2.159,1.847,6.4,6.4,0,0,1,.954,2.519,16.611,16.611,0,0,1,.212,3.146h-10.384a6.164,6.164,0,0,0,1.019,3.5,3.394,3.394,0,0,0,2.949,1.316,3.792,3.792,0,0,0,2.976-1.245,4.237,4.237,0,0,0,.88-1.674h2.36a4.987,4.987,0,0,1-.62,1.753,6.315,6.315,0,0,1-1.174,1.579,5.543,5.543,0,0,1-2.686,1.44,8.112,8.112,0,0,1-1.945.213,5.953,5.953,0,0,1-4.49-1.939,7.571,7.571,0,0,1-1.842-5.433,8.236,8.236,0,0,1,1.854-5.584,6.105,6.105,0,0,1,4.85-2.147A6.449,6.449,0,0,1,1359.511,367.254Zm.859,5.606a6.265,6.265,0,0,0-.675-2.493,3.447,3.447,0,0,0-3.264-1.733,3.6,3.6,0,0,0-2.749,1.193,4.525,4.525,0,0,0-1.177,3.033Z" style="fill: #1b1b19"/>
    <path d="M1365.669,366.861h2.279v2.466a5.466,5.466,0,0,1,1.373-1.753,3.565,3.565,0,0,1,2.52-1.033c.044,0,.12,0,.226.014s.289.026.547.053v2.533a3.531,3.531,0,0,0-.393-.054c-.12-.008-.251-.013-.394-.013a3.423,3.423,0,0,0-2.785,1.166,4.072,4.072,0,0,0-.974,2.686v8.212h-2.4Z" style="fill: #1b1b19"/>
    <path d="M1382.357,367.435a6.537,6.537,0,0,1,1.381,1.359V367h2.213v12.983a9.6,9.6,0,0,1-.8,4.293q-1.488,2.906-5.62,2.9a6.876,6.876,0,0,1-3.866-1.033,4.031,4.031,0,0,1-1.754-3.232h2.44a2.722,2.722,0,0,0,.689,1.479,3.5,3.5,0,0,0,2.546.8q2.744,0,3.592-1.946a11.023,11.023,0,0,0,.465-4.093,4.709,4.709,0,0,1-1.727,1.627,6.172,6.172,0,0,1-6.712-1.113q-1.733-1.647-1.732-5.446a8.268,8.268,0,0,1,1.746-5.6,5.39,5.39,0,0,1,4.216-2.013A5.157,5.157,0,0,1,1382.357,367.435Zm.294,2.572a3.477,3.477,0,0,0-2.772-1.279,3.423,3.423,0,0,0-3.448,2.372,9.35,9.35,0,0,0-.491,3.319,5.921,5.921,0,0,0,.975,3.673,3.139,3.139,0,0,0,2.619,1.26,3.678,3.678,0,0,0,3.621-2.333,7.563,7.563,0,0,0,.583-3.08A5.973,5.973,0,0,0,1382.651,370.007Z" style="fill: #1b1b19"/>
    <path d="M1389.331,361.556h2.44v2.719h-2.44Zm0,5.372h2.44v14.21h-2.44Z" style="fill: #1b1b19"/>
    <path d="M1403.941,367.254a5.421,5.421,0,0,1,2.16,1.847,6.4,6.4,0,0,1,.954,2.519,16.7,16.7,0,0,1,.212,3.146h-10.384a6.171,6.171,0,0,0,1.018,3.5,3.4,3.4,0,0,0,2.95,1.316,3.788,3.788,0,0,0,2.975-1.245,4.252,4.252,0,0,0,.881-1.674h2.359a4.947,4.947,0,0,1-.62,1.753,6.267,6.267,0,0,1-1.174,1.579,5.54,5.54,0,0,1-2.685,1.44,8.117,8.117,0,0,1-1.945.213,5.957,5.957,0,0,1-4.491-1.939,7.575,7.575,0,0,1-1.841-5.433,8.236,8.236,0,0,1,1.854-5.584,6.1,6.1,0,0,1,4.85-2.147A6.441,6.441,0,0,1,1403.941,367.254Zm.86,5.606a6.265,6.265,0,0,0-.675-2.493,3.447,3.447,0,0,0-3.265-1.733,3.608,3.608,0,0,0-2.749,1.193,4.524,4.524,0,0,0-1.176,3.033Z" style="fill: #1b1b19"/>
  </g>
  <g>
    <g>
      <path d="M2.691,2.066h16.4V4.835H5.676V11.7h12.4V14.31H5.676v7.66H19.318v2.691H2.691Z" style="fill: #1b1b19"/>
      <path d="M23.041,8.188h2.63v2.338A7.361,7.361,0,0,1,28.147,8.45a6.6,6.6,0,0,1,2.908-.631q3.507,0,4.737,2.446a8.7,8.7,0,0,1,.677,3.83V24.661H33.653V14.279a5.626,5.626,0,0,0-.445-2.43,2.706,2.706,0,0,0-2.677-1.538,5.43,5.43,0,0,0-1.615.2,4.156,4.156,0,0,0-2,1.353,4.069,4.069,0,0,0-.9,1.684,11.379,11.379,0,0,0-.207,2.484v8.629H23.041Z" style="fill: #1b1b19"/>
      <path d="M57.448,4.874a5.18,5.18,0,0,1,1.569,3.791,5.156,5.156,0,0,1-1.569,3.784,5.366,5.366,0,0,1-7.583,0A5.156,5.156,0,0,1,48.3,8.665a5.18,5.18,0,0,1,1.569-3.791,5.346,5.346,0,0,1,7.583,0ZM55.9,10.9a3.155,3.155,0,0,0,0-4.476A3.173,3.173,0,0,0,50.48,8.665,3.176,3.176,0,0,0,55.9,10.9Zm10.62-8.175h1.717L55.919,25.246H54.2Zm6.014,12.784a5.36,5.36,0,0,1,0,7.578A5.36,5.36,0,0,1,63.385,19.3a5.359,5.359,0,0,1,9.151-3.789ZM70.99,21.544a3.169,3.169,0,1,0-2.237.933A3.059,3.059,0,0,0,70.99,21.544Z" style="fill: #1b1b19"/>
    </g>
    <path d="M820.362,295.173l-210.836-81.06C643.5,125.476,725.572,68.977,820.362,68.977Z" style="fill: #d37e31"/>
    <path d="M820.362,295.173,610.971,379.908c-22.424-55.6-22.9-109.814-1.445-165.795Z" style="fill: #b0c633"/>
    <path d="M820.362,295.173l182.7,132.955C929.755,529.192,788.526,551.6,687.621,478.171c-36.326-26.435-59.829-56.566-76.65-98.263Z" style="fill: #740e45"/>
    <path d="M820.362,295.173V68.977c124.723,0,225.834,101.271,225.834,226.2,0,49.971-13.8,92.53-43.13,132.955Z" style="fill: #51a750"/>
    <path d="M819.992,414.236A119.055,119.055,0,1,0,700.938,295.179,119.054,119.054,0,0,0,819.992,414.236" style="fill: #fff"/>
  </g>
  <g>
    <path d="M969.631,242.021a6.906,6.906,0,0,1-1.526-4.526h2.506a6.2,6.2,0,0,0,.694,2.693,3.645,3.645,0,0,0,3.372,1.506,4.424,4.424,0,0,0,3.039-1.013,3.326,3.326,0,0,0,1.146-2.613,3.039,3.039,0,0,0-1.206-2.759,6.106,6.106,0,0,0-3.352-.787c-.16,0-.323,0-.487.007s-.331.012-.5.02V232.43c.249.027.458.044.627.053s.351.013.546.013a5.016,5.016,0,0,0,2.213-.426,2.711,2.711,0,0,0,1.52-2.666,2.606,2.606,0,0,0-1.013-2.2,3.784,3.784,0,0,0-2.359-.773,3.5,3.5,0,0,0-3.32,1.6,5.534,5.534,0,0,0-.573,2.506h-2.374a7.2,7.2,0,0,1,.854-3.626q1.467-2.666,5.159-2.666a6.988,6.988,0,0,1,4.519,1.3,4.568,4.568,0,0,1,1.6,3.766,4.206,4.206,0,0,1-.946,2.852,3.983,3.983,0,0,1-1.521,1.066,4.149,4.149,0,0,1,2.354,1.593,4.824,4.824,0,0,1,.845,2.886,5.883,5.883,0,0,1-1.8,4.453,7.1,7.1,0,0,1-5.105,1.719Q971.157,243.88,969.631,242.021Z" style="fill: #fff"/>
    <path d="M985.734,238.5a3.329,3.329,0,0,0,1.907,2.839,4.594,4.594,0,0,0,1.973.4,3.7,3.7,0,0,0,3.159-1.359,4.888,4.888,0,0,0,1.027-3.013,3.94,3.94,0,0,0-1.22-3.093,4.237,4.237,0,0,0-2.926-1.093,4.408,4.408,0,0,0-2.127.48,4.562,4.562,0,0,0-1.512,1.333l-2.079-.12,1.453-10.277h9.917v2.319h-8.118l-.813,5.305a5.937,5.937,0,0,1,1.266-.759,6.415,6.415,0,0,1,2.466-.44,6.315,6.315,0,0,1,4.453,1.692A5.606,5.606,0,0,1,996.386,237a7.367,7.367,0,0,1-1.673,4.772q-1.673,2.067-5.339,2.066a6.8,6.8,0,0,1-4.126-1.313,5.207,5.207,0,0,1-2.006-4.032Z" style="fill: #fff"/>
  </g>
  <g>
    <path d="M635.531,283.625v-1.84a9.768,9.768,0,0,0,3.626-.846,4.176,4.176,0,0,0,1.533-2.806h1.893v19.009h-2.56V283.625Z" style="fill: #1b1b19"/>
    <path d="M649.7,292.849a8.244,8.244,0,0,1,3.459-3.319l2.559-1.48a12.027,12.027,0,0,0,2.413-1.707,3.738,3.738,0,0,0,.093-5.189,3.641,3.641,0,0,0-2.666-.982,3.482,3.482,0,0,0-3.413,1.872,6.722,6.722,0,0,0-.559,2.781h-2.44a8.568,8.568,0,0,1,.92-4.066q1.56-2.772,5.5-2.773,3.279,0,4.793,1.773a5.933,5.933,0,0,1,1.512,3.946,5.364,5.364,0,0,1-1.612,3.919,15.818,15.818,0,0,1-3.346,2.293l-1.827,1.013a11.86,11.86,0,0,0-2.052,1.373,5,5,0,0,0-1.68,2.572h10.424v2.267h-13.1A11.123,11.123,0,0,1,649.7,292.849Z" style="fill: #1b1b19"/>
  </g>
  <g>
    <path d="M718.879,145.844V144a9.782,9.782,0,0,0,3.625-.846,4.172,4.172,0,0,0,1.534-2.806h1.892V159.36h-2.559V145.844Z" style="fill: #fff"/>
    <path d="M734.8,154.735a3.034,3.034,0,0,0,1.533,2.746,3.392,3.392,0,0,0,1.653.4,3.714,3.714,0,0,0,2.932-1.433q1.214-1.433,1.72-5.819a4.442,4.442,0,0,1-1.979,1.78,6.3,6.3,0,0,1-2.54.513,5.688,5.688,0,0,1-4.365-1.718,6.214,6.214,0,0,1-1.607-4.421,7.07,7.07,0,0,1,1.587-4.567,5.649,5.649,0,0,1,4.679-1.971A5.754,5.754,0,0,1,744.173,144a13.23,13.23,0,0,1,.88,5.169A17.024,17.024,0,0,1,744,155.378q-1.747,4.5-5.919,4.5a5.728,5.728,0,0,1-4.252-1.466,5.012,5.012,0,0,1-1.453-3.679Zm6.245-4.858a3.97,3.97,0,0,0,1.18-3.28,4.193,4.193,0,0,0-1.06-3.135,3.713,3.713,0,0,0-2.7-1.031,3.528,3.528,0,0,0-2.793,1.178,4.6,4.6,0,0,0-1.033,3.147,4.511,4.511,0,0,0,.906,2.962,3.543,3.543,0,0,0,2.893,1.1A4.086,4.086,0,0,0,741.047,149.877Z" style="fill: #fff"/>
  </g>
  <g>
    <path d="M792.866,476.286a6.9,6.9,0,0,1-1.527-4.525h2.506a6.215,6.215,0,0,0,.694,2.693,3.644,3.644,0,0,0,3.372,1.506,4.422,4.422,0,0,0,3.039-1.013,3.33,3.33,0,0,0,1.147-2.613,3.042,3.042,0,0,0-1.207-2.759,6.1,6.1,0,0,0-3.352-.787c-.16,0-.323,0-.487.007s-.331.011-.5.02V466.7q.373.041.627.054c.169.009.351.013.546.013a5,5,0,0,0,2.213-.427,2.71,2.71,0,0,0,1.52-2.666,2.6,2.6,0,0,0-1.013-2.2,3.785,3.785,0,0,0-2.36-.773,3.5,3.5,0,0,0-3.319,1.6,5.537,5.537,0,0,0-.573,2.506h-2.373a7.206,7.206,0,0,1,.853-3.625q1.467-2.667,5.159-2.666a6.988,6.988,0,0,1,4.519,1.3,4.566,4.566,0,0,1,1.6,3.765,4.2,4.2,0,0,1-.947,2.853,3.982,3.982,0,0,1-1.52,1.066,4.15,4.15,0,0,1,2.353,1.593,4.823,4.823,0,0,1,.847,2.886,5.88,5.88,0,0,1-1.8,4.452,7.1,7.1,0,0,1-5.105,1.72Q794.392,478.146,792.866,476.286Z" style="fill: #fff"/>
    <path d="M814.661,477.626V472.96H806.29v-2.346l8.744-12.13h2.026v12.384h2.813v2.092H817.06v4.666Zm-.04-6.758V462.2l-6.119,8.671Z" style="fill: #fff"/>
  </g>
</svg>
